HIERARCHY
ROOT Body
{
  OFFSET 0 0 0
  CHANNELS 6 Xposition Yposition Zposition Zrotation Xrotation Yrotation
  JOINT Head
  {
    OFFSET 0 26 0
    CHANNELS 3 Zrotation Xrotation Yrotation
    End Site
    {
      OFFSET 0 8 0
    }
  }
  JOINT ArmL
  {
    OFFSET 10 6 0
    CHANNELS 3 Zrotation Xrotation Yrotation
    End Site
    {
      OFFSET 8 0 0
    }
  }
  JOINT ArmR
  {
    OFFSET -10 6 0
    CHANNELS 3 Zrotation Xrotation Yrotation
    End Site
    {
      OFFSET -8 0 0
    }
  }
  JOINT FootL
  {
    OFFSET 6 -18 0
    CHANNELS 3 Xposition Yposition Zposition
    End Site
    {
      OFFSET 0 -4 0
    }
  }
  JOINT FootR
  {
    OFFSET -6 -18 0
    CHANNELS 3 Xposition Yposition Zposition
    End Site
    {
      OFFSET 0 -4 0
    }
  }
}

MOTION
Frames: 58
Frame Time: 0.033333
0.0000 40.0000 0.0000 0.0000 0.0000 0.0000 0.0000 0.0000 0.0000 0.0000 0.0000 0.0000 0.0000 0.0000 -0.0000 0.0000 0.0000 0.0000 0.0000 0.0000 0.0000
0.0000 40.0000 0.0000 0.0000 0.0000 0.0000 0.0000 0.0000 0.0000 0.0000 0.0000 1.5679 0.0000 0.0000 -1.5679 0.0000 0.0000 0.0000 0.0000 0.0000 0.0000
0.0000 40.0000 0.0000 0.0000 0.0000 0.0000 0.0000 0.0000 0.0000 0.0000 0.0000 3.1187 0.0000 0.0000 -3.1187 0.0000 0.0000 0.0000 0.0000 0.0000 0.0000
0.0000 40.0000 0.0000 0.0000 0.0000 0.0000 0.0000 0.0000 0.0000 0.0000 0.0000 4.6353 0.0000 0.0000 -4.6353 0.0000 0.0000 0.0000 0.0000 0.0000 0.0000
0.0000 40.0000 0.0000 0.0000 0.0000 0.0000 0.0000 0.0000 0.0000 0.0000 0.0000 6.1010 0.0000 0.0000 -6.1010 0.0000 0.0000 0.0000 0.0000 0.0000 0.0000
0.0000 40.0000 0.0000 0.0000 0.0000 0.0000 0.0000 0.0000 0.0000 0.0000 0.0000 7.5000 0.0000 0.0000 -7.5000 0.0000 0.0000 0.0000 0.0000 0.0000 0.0000
0.0000 40.0000 0.0000 0.0000 0.0000 0.0000 0.0000 0.0000 0.0000 0.0000 0.0000 8.8168 0.0000 0.0000 -8.8168 0.0000 0.0000 0.0000 0.0000 0.0000 0.0000
0.0000 40.0000 0.0000 0.0000 0.0000 0.0000 0.0000 0.0000 0.0000 0.0000 0.0000 10.0370 0.0000 0.0000 -10.0370 0.0000 0.0000 0.0000 0.0000 0.0000 0.0000
0.0000 40.0000 0.0000 0.0000 0.0000 0.0000 0.0000 0.0000 0.0000 0.0000 0.0000 11.1472 0.0000 0.0000 -11.1472 0.0000 0.0000 0.0000 0.0000 0.0000 0.0000
0.0000 40.0000 0.0000 0.0000 0.0000 0.0000 0.0000 0.0000 0.0000 0.0000 0.0000 12.1353 0.0000 0.0000 -12.1353 0.0000 0.0000 0.0000 0.0000 0.0000 0.0000
0.0000 40.0000 0.0000 0.0000 0.0000 0.0000 0.0000 0.0000 0.0000 0.0000 0.0000 12.9904 0.0000 0.0000 -12.9904 0.0000 0.0000 0.0000 0.0000 0.0000 0.0000
0.0000 40.0000 0.0000 0.0000 0.0000 0.0000 0.0000 0.0000 0.0000 0.0000 0.0000 13.7032 0.0000 0.0000 -13.7032 0.0000 0.0000 0.0000 0.0000 0.0000 0.0000
0.0000 40.0000 0.0000 0.0000 0.0000 0.0000 0.0000 0.0000 0.0000 0.0000 0.0000 14.2658 0.0000 0.0000 -14.2658 0.0000 0.0000 0.0000 0.0000 0.0000 0.0000
0.0000 39.1057 0.0000 0.0000 0.0000 0.0000 0.0000 0.0000 0.0000 0.0000 0.0000 14.6722 0.0000 0.0000 -14.6722 0.0000 0.8943 0.0000 0.0000 0.8943 0.0000
0.0000 38.2315 0.0000 0.0000 0.0000 0.0000 0.0000 0.0000 0.0000 0.0000 0.0000 14.9178 0.0000 0.0000 -14.9178 0.0000 1.7685 0.0000 0.0000 1.7685 0.0000
0.0000 37.3967 0.0000 0.0000 0.0000 0.0000 0.0000 0.0000 0.0000 0.0000 0.0000 15.0000 0.0000 0.0000 -15.0000 0.0000 2.6033 0.0000 0.0000 2.6033 0.0000
0.0000 36.6201 0.0000 0.0000 0.0000 0.0000 0.0000 0.0000 0.0000 0.0000 0.0000 14.9178 0.0000 0.0000 -14.9178 0.0000 3.3799 0.0000 0.0000 3.3799 0.0000
0.0000 35.9190 0.0000 0.0000 0.0000 0.0000 0.0000 0.0000 0.0000 0.0000 0.0000 14.6722 0.0000 0.0000 -14.6722 0.0000 4.0810 0.0000 0.0000 4.0810 0.0000
0.0000 35.3090 0.0000 0.0000 0.0000 0.0000 0.0000 0.0000 0.0000 0.0000 0.0000 14.2658 0.0000 0.0000 -14.2658 0.0000 4.6910 0.0000 0.0000 4.6910 0.0000
0.0000 34.8038 0.0000 0.0000 0.0000 0.0000 0.0000 0.0000 0.0000 0.0000 0.0000 13.7032 0.0000 0.0000 -13.7032 0.0000 5.1962 0.0000 0.0000 5.1962 0.0000
0.0000 34.4148 0.0000 0.0000 0.0000 0.0000 0.0000 0.0000 0.0000 0.0000 0.0000 12.9904 0.0000 0.0000 -12.9904 0.0000 5.5852 0.0000 0.0000 5.5852 0.0000
0.0000 34.1504 0.0000 0.0000 0.0000 0.0000 0.0000 0.0000 0.0000 0.0000 0.0000 12.1353 0.0000 0.0000 -12.1353 0.0000 5.8496 0.0000 0.0000 5.8496 0.0000
0.0000 34.0168 0.0000 0.0000 0.0000 0.0000 0.0000 0.0000 0.0000 0.0000 0.0000 11.1472 0.0000 0.0000 -11.1472 0.0000 5.9832 0.0000 0.0000 5.9832 0.0000
0.0000 35.0000 0.0000 0.0000 0.0000 0.0000 0.0000 0.0000 0.0000 0.0000 0.0000 10.0370 0.0000 0.0000 -10.0370 0.0000 5.0000 0.0000 0.0000 5.0000 0.0000
0.0000 37.0000 0.0000 0.0000 0.0000 0.0000 0.0000 0.0000 0.0000 0.0000 0.0000 8.8168 0.0000 0.0000 -8.8168 0.0000 3.0000 0.0000 0.0000 3.0000 0.0000
0.0000 39.0000 0.0000 0.0000 0.0000 0.0000 0.0000 0.0000 0.0000 0.0000 0.0000 7.5000 0.0000 0.0000 -7.5000 0.0000 1.0000 0.0000 0.0000 1.0000 0.0000
0.0000 41.9035 0.0000 0.0000 0.0000 0.0000 0.0000 -8.0000 0.0000 0.0000 0.0000 -50.0000 0.0000 0.0000 50.0000 0.0000 0.0000 0.0000 0.0000 0.0000 0.0000
0.0000 45.2935 0.0000 0.0000 0.0000 0.0000 0.0000 -8.0000 0.0000 0.0000 0.0000 -50.0000 0.0000 0.0000 50.0000 0.0000 0.0000 0.0000 0.0000 0.0000 0.0000
0.0000 48.1273 0.0000 0.0000 0.0000 0.0000 0.0000 -8.0000 0.0000 0.0000 0.0000 -50.0000 0.0000 0.0000 50.0000 0.0000 0.0000 0.0000 0.0000 0.0000 0.0000
0.0000 50.4050 0.0000 0.0000 0.0000 0.0000 0.0000 -8.0000 0.0000 0.0000 0.0000 -50.0000 0.0000 0.0000 50.0000 0.0000 0.0000 0.0000 0.0000 0.0000 0.0000
0.0000 52.1266 0.0000 0.0000 0.0000 0.0000 0.0000 -8.0000 0.0000 0.0000 0.0000 -50.0000 0.0000 0.0000 50.0000 0.0000 0.0000 0.0000 0.0000 0.0000 0.0000
0.0000 53.2920 0.0000 0.0000 0.0000 0.0000 0.0000 -8.0000 0.0000 0.0000 0.0000 -50.0000 0.0000 0.0000 50.0000 0.0000 0.0000 0.0000 0.0000 0.0000 0.0000
0.0000 53.9013 0.0000 0.0000 0.0000 0.0000 0.0000 -8.0000 0.0000 0.0000 0.0000 -50.0000 0.0000 0.0000 50.0000 0.0000 0.0000 0.0000 0.0000 0.0000 0.0000
0.0000 53.9545 0.0000 0.0000 0.0000 0.0000 0.0000 -8.0000 0.0000 0.0000 0.0000 -50.0000 0.0000 0.0000 50.0000 0.0000 0.0000 0.0000 0.0000 0.0000 0.0000
0.0000 53.4516 0.0000 0.0000 0.0000 0.0000 0.0000 -8.0000 0.0000 0.0000 0.0000 -50.0000 0.0000 0.0000 50.0000 0.0000 0.0000 0.0000 0.0000 0.0000 0.0000
0.0000 52.3926 0.0000 0.0000 0.0000 0.0000 0.0000 -8.0000 0.0000 0.0000 0.0000 -50.0000 0.0000 0.0000 50.0000 0.0000 0.0000 0.0000 0.0000 0.0000 0.0000
0.0000 50.7774 0.0000 0.0000 0.0000 0.0000 0.0000 -8.0000 0.0000 0.0000 0.0000 -50.0000 0.0000 0.0000 50.0000 0.0000 0.0000 0.0000 0.0000 0.0000 0.0000
0.0000 48.6061 0.0000 0.0000 0.0000 0.0000 0.0000 -8.0000 0.0000 0.0000 0.0000 -50.0000 0.0000 0.0000 50.0000 0.0000 0.0000 0.0000 0.0000 0.0000 0.0000
0.0000 45.8787 0.0000 0.0000 0.0000 0.0000 0.0000 -8.0000 0.0000 0.0000 0.0000 -50.0000 0.0000 0.0000 50.0000 0.0000 0.0000 0.0000 0.0000 0.0000 0.0000
0.0000 42.5952 0.0000 0.0000 0.0000 0.0000 0.0000 -8.0000 0.0000 0.0000 0.0000 -50.0000 0.0000 0.0000 50.0000 0.0000 0.0000 0.0000 0.0000 0.0000 0.0000
0.0000 38.5232 0.0000 0.0000 0.0000 0.0000 0.0000 0.0000 0.0000 0.0000 0.0000 -12.9904 0.0000 0.0000 12.9904 0.0000 1.4768 0.0000 0.0000 1.4768 0.0000
0.0000 36.0651 0.0000 0.0000 0.0000 0.0000 0.0000 0.0000 0.0000 0.0000 0.0000 -13.7032 0.0000 0.0000 13.7032 0.0000 3.9349 0.0000 0.0000 3.9349 0.0000
0.0000 37.1625 0.0000 0.0000 0.0000 0.0000 0.0000 0.0000 0.0000 0.0000 0.0000 -14.2658 0.0000 0.0000 14.2658 0.0000 2.8375 0.0000 0.0000 2.8375 0.0000
0.0000 40.0000 0.0000 0.0000 0.0000 0.0000 0.0000 0.0000 0.0000 0.0000 0.0000 -14.6722 0.0000 0.0000 14.6722 0.0000 0.0000 0.0000 0.0000 0.0000 0.0000
0.0000 40.0000 0.0000 0.0000 0.0000 0.0000 0.0000 0.0000 0.0000 0.0000 0.0000 -14.9178 0.0000 0.0000 14.9178 0.0000 0.0000 0.0000 0.0000 0.0000 0.0000
0.0000 40.0000 0.0000 0.0000 0.0000 0.0000 0.0000 0.0000 0.0000 0.0000 0.0000 -15.0000 0.0000 0.0000 15.0000 0.0000 0.0000 0.0000 0.0000 0.0000 0.0000
0.0000 40.0000 0.0000 0.0000 0.0000 0.0000 0.0000 0.0000 0.0000 0.0000 0.0000 -14.9178 0.0000 0.0000 14.9178 0.0000 0.0000 0.0000 0.0000 0.0000 0.0000
0.0000 40.0000 0.0000 0.0000 0.0000 0.0000 0.0000 0.0000 0.0000 0.0000 0.0000 -14.6722 0.0000 0.0000 14.6722 0.0000 0.0000 0.0000 0.0000 0.0000 0.0000
0.0000 40.0000 0.0000 0.0000 0.0000 0.0000 0.0000 0.0000 0.0000 0.0000 0.0000 -14.2658 0.0000 0.0000 14.2658 0.0000 0.0000 0.0000 0.0000 0.0000 0.0000
0.0000 40.0000 0.0000 0.0000 0.0000 0.0000 0.0000 0.0000 0.0000 0.0000 0.0000 -13.7032 0.0000 0.0000 13.7032 0.0000 0.0000 0.0000 0.0000 0.0000 0.0000
0.0000 40.0000 0.0000 0.0000 0.0000 0.0000 0.0000 0.0000 0.0000 0.0000 0.0000 -12.9904 0.0000 0.0000 12.9904 0.0000 0.0000 0.0000 0.0000 0.0000 0.0000
0.0000 40.0000 0.0000 0.0000 0.0000 0.0000 0.0000 0.0000 0.0000 0.0000 0.0000 -12.1353 0.0000 0.0000 12.1353 0.0000 0.0000 0.0000 0.0000 0.0000 0.0000
0.0000 40.0000 0.0000 0.0000 0.0000 0.0000 0.0000 0.0000 0.0000 0.0000 0.0000 -11.1472 0.0000 0.0000 11.1472 0.0000 0.0000 0.0000 0.0000 0.0000 0.0000
0.0000 40.0000 0.0000 0.0000 0.0000 0.0000 0.0000 0.0000 0.0000 0.0000 0.0000 -10.0370 0.0000 0.0000 10.0370 0.0000 0.0000 0.0000 0.0000 0.0000 0.0000
0.0000 40.0000 0.0000 0.0000 0.0000 0.0000 0.0000 0.0000 0.0000 0.0000 0.0000 -8.8168 0.0000 0.0000 8.8168 0.0000 0.0000 0.0000 0.0000 0.0000 0.0000
0.0000 40.0000 0.0000 0.0000 0.0000 0.0000 0.0000 0.0000 0.0000 0.0000 0.0000 -7.5000 0.0000 0.0000 7.5000 0.0000 0.0000 0.0000 0.0000 0.0000 0.0000
0.0000 40.0000 0.0000 0.0000 0.0000 0.0000 0.0000 0.0000 0.0000 0.0000 0.0000 -6.1010 0.0000 0.0000 6.1010 0.0000 0.0000 0.0000 0.0000 0.0000 0.0000
0.0000 40.0000 0.0000 0.0000 0.0000 0.0000 0.0000 0.0000 0.0000 0.0000 0.0000 -4.6353 0.0000 0.0000 4.6353 0.0000 0.0000 0.0000 0.0000 0.0000 0.0000
